<?xml version="1.0" encoding="UTF-8"?>
<svg xmlns="http://www.w3.org/2000/svg" viewBox="0 0 512 512" width="512" height="512">
  <rect x="0" y="0" width="512" height="512" rx="116" ry="116" fill="#FFCC00"/>
  <g transform="translate(256 256) rotate(-28) scale(0.9501) translate(-256 -256)">
  
  <!-- antennae -->
  <g stroke="#1A1A1A" stroke-width="8" stroke-linecap="round" fill="#1A1A1A">
    <path d="M242,116 Q220,86 206,68" fill="none"/>
    <path d="M270,116 Q294,88 308,72" fill="none"/>
    <circle cx="204" cy="64" r="12"/>
    <circle cx="310" cy="68" r="12"/>
  </g>

  <!-- wings (separated from the body by a thin yellow outline) -->
  <g fill="#1A1A1A" stroke="#FFCC00" stroke-width="6">
    <ellipse cx="198" cy="176" rx="30" ry="52"
             transform="rotate(-32 198 176)"/>
    <ellipse cx="314" cy="176" rx="30" ry="52"
             transform="rotate(32 314 176)"/>
  </g>

  <!-- head -->
  <circle cx="256" cy="150" r="46" fill="#1A1A1A"/>

  <!-- thorax -->
  <ellipse cx="256" cy="202" rx="46" ry="40" fill="#1A1A1A"/>

  <!-- abdomen tapering to a pencil point -->
  <defs>
    <clipPath id="abclip">
      <path d="M210,236 C196,300 232,404 256,440
               C280,404 316,300 302,236
               C282,210 230,210 210,236 Z"/>
    </clipPath>
  </defs>
  <path d="M210,236 C196,300 232,404 256,440
           C280,404 316,300 302,236
           C282,210 230,210 210,236 Z" fill="#1A1A1A"/>
  <!-- yellow stripe gaps + the sharpened-wood collar near the tip -->
  <g clip-path="url(#abclip)" fill="#FFCC00">
    <rect x="180" y="280" width="152" height="15"/>
    <rect x="180" y="318" width="152" height="15"/>
    <rect x="180" y="356" width="152" height="15"/>
    <rect x="180" y="396" width="152" height="15"/>
  </g>

  </g>
</svg>
